<svg t="1709951691025" class="icon" viewBox="0 0 1024 1024" version="1.1" xmlns="http://www.w3.org/2000/svg" p-id="2240" id="mx_n_1709951691027" width="16" height="16"><path d="M920.9 205.9L801.6 86.7C787.1 72.2 767.6 64 747 64s-40.1 8.1-54.7 22.7L563.9 215c-14.6 14.6-22.7 34.2-22.7 54.8 0 20.7 8.1 40.1 22.7 54.8l100.4 100.5c-23.1 53.5-55.6 101.5-96.8 142.6-41.1 41.3-89.2 73.9-142.5 97L324.6 564c-14.6-14.6-34-22.7-54.7-22.7s-40.1 8.1-54.7 22.7L86.7 692.2C72.2 706.8 64 726.4 64 747c0 20.7 8.1 40.1 22.7 54.8L205.9 921c24.9 24.9 59.1 39.1 94.3 39.1 7.3 0 14.3-0.6 21.5-1.8C470 933.8 617.2 854.8 736 736.1c118.7-119 197.6-266.1 222.2-414.5 7.1-42-7-85.4-37.3-115.7z m-42.1 102.5C857 440.4 786 572.1 679 678.9s-238.6 178-370.6 199.8c-16.6 2.8-33.6-2.8-45.7-14.8l-117-117 124.1-124.2L404 757.1l1 1 24.2-9c148.6-54.8 265.3-171.5 320-320.1l9-24.2-135.4-135.1 124.1-124.2 117 117.1c12.1 12.2 17.7 29.2 14.9 45.8z" p-id="2241"></path></svg>